<?xml version="1.0" encoding="UTF-8" standalone="no"?>
<svg
   xmlns:dc="http://purl.org/dc/elements/1.1/"
   xmlns:cc="http://creativecommons.org/ns#"
   xmlns:rdf="http://www.w3.org/1999/02/22-rdf-syntax-ns#"
   xmlns:svg="http://www.w3.org/2000/svg"
   xmlns="http://www.w3.org/2000/svg"
   id="svg8"
   version="1.1"
   viewBox="0 0 210 297"
   height="297mm"
   width="210mm">
  <defs
     id="defs2" />
  <metadata
     id="metadata5">
    <rdf:RDF>
      <cc:Work
         rdf:about="">
        <dc:format>image/svg+xml</dc:format>
        <dc:type
           rdf:resource="http://purl.org/dc/dcmitype/StillImage" />
        <dc:title></dc:title>
      </cc:Work>
    </rdf:RDF>
  </metadata>
  <g
     id="layer1">
    <path
       id="rect815"
       transform="scale(0.26458333)"
       d="M 151.55859 100.28125 A 3.398212 3.398212 0 0 0 149.2832 101.20117 L 149.27344 101.19336 L 134.8418 115.625 L 120.42383 101.20703 L 120.41406 101.2168 A 3.398212 3.398212 0 0 0 115.6875 101.29102 A 3.398212 3.398212 0 0 0 115.61523 106.01562 L 115.60352 106.02734 L 130.02148 120.44531 L 115.70312 134.76367 L 115.71094 134.77148 A 3.398212 3.398212 0 0 0 115.67188 134.80859 A 3.398212 3.398212 0 0 0 115.67188 139.61523 A 3.398212 3.398212 0 0 0 120.47656 139.61523 A 3.398212 3.398212 0 0 0 120.51562 139.57422 L 120.52344 139.58398 L 134.8418 125.26562 L 149.17383 139.59766 L 149.18359 139.58984 A 3.398212 3.398212 0 0 0 149.2207 139.63086 A 3.398212 3.398212 0 0 0 154.02734 139.63086 A 3.398212 3.398212 0 0 0 154.02734 134.82422 A 3.398212 3.398212 0 0 0 153.98633 134.78711 L 153.99414 134.77734 L 139.66211 120.44531 L 154.09375 106.01172 L 154.08203 106.00195 A 3.398212 3.398212 0 0 0 154.01172 101.27539 A 3.398212 3.398212 0 0 0 151.55859 100.28125 z "
       style="opacity:1;fill:#000000;fill-opacity:1;stroke:none;stroke-width:18.55540657;stroke-miterlimit:4;stroke-dasharray:none;stroke-opacity:1" />
  </g>
</svg>
