<?xml version="1.0" encoding="UTF-8" standalone="no"?>
<svg
   xmlns:dc="http://purl.org/dc/elements/1.1/"
   xmlns:cc="http://creativecommons.org/ns#"
   xmlns:rdf="http://www.w3.org/1999/02/22-rdf-syntax-ns#"
   xmlns:svg="http://www.w3.org/2000/svg"
   xmlns="http://www.w3.org/2000/svg"
   width="64.863556"
   height="64.861626"
   viewBox="0 0 10.675244 10.674925"
   version="1.1"
   id="svg8">
  <defs
     id="defs2" />
  <metadata
     id="metadata5">
    <rdf:RDF>
      <cc:Work
         rdf:about="">
        <dc:format>image/svg+xml</dc:format>
        <dc:type
           rdf:resource="http://purl.org/dc/dcmitype/StillImage" />
        <dc:title></dc:title>
      </cc:Work>
    </rdf:RDF>
  </metadata>
  <g
     transform="translate(-30.341304,-26.532588)"
     id="layer1">
    <path
       style="opacity:1;fill:#000000;fill-opacity:1;stroke:none;stroke-width:18.55540657;stroke-miterlimit:4;stroke-dasharray:none;stroke-opacity:1"
       d="m 151.55859,100.28125 a 3.398212,3.398212 0 0 0 -2.27539,0.91992 l -0.01,-0.008 -14.43164,14.43164 -14.41797,-14.41797 -0.01,0.01 a 3.398212,3.398212 0 0 0 -4.72656,0.0742 3.398212,3.398212 0 0 0 -0.0723,4.7246 l -0.0117,0.0117 14.41796,14.41797 -14.31836,14.31836 0.008,0.008 a 3.398212,3.398212 0 0 0 -0.0391,0.0371 3.398212,3.398212 0 0 0 0,4.80664 3.398212,3.398212 0 0 0 4.80468,0 3.398212,3.398212 0 0 0 0.0391,-0.041 l 0.008,0.01 14.31836,-14.31836 14.33203,14.33204 0.01,-0.008 a 3.398212,3.398212 0 0 0 0.0371,0.041 3.398212,3.398212 0 0 0 4.80664,0 3.398212,3.398212 0 0 0 0,-4.80664 3.398212,3.398212 0 0 0 -0.041,-0.0371 l 0.008,-0.01 -14.33203,-14.33203 14.43164,-14.43359 -0.0117,-0.01 a 3.398212,3.398212 0 0 0 -0.0703,-4.72656 3.398212,3.398212 0 0 0 -2.45313,-0.99414 z"
       transform="scale(0.26458333)"
       id="rect815" />
  </g>
</svg>
