<?xml version="1.0" encoding="UTF-8" standalone="no"?>
<svg
   xmlns:dc="http://purl.org/dc/elements/1.1/"
   xmlns:cc="http://creativecommons.org/ns#"
   xmlns:rdf="http://www.w3.org/1999/02/22-rdf-syntax-ns#"
   xmlns:svg="http://www.w3.org/2000/svg"
   xmlns="http://www.w3.org/2000/svg"
   id="svg1130"
   version="1.1"
   viewBox="0 0 85.455818 85.45565"
   height="85.45565mm"
   width="85.455818mm">
  <defs
     id="defs1124" />
  <metadata
     id="metadata1127">
    <rdf:RDF>
      <cc:Work
         rdf:about="">
        <dc:format>image/svg+xml</dc:format>
        <dc:type
           rdf:resource="http://purl.org/dc/dcmitype/StillImage" />
        <dc:title></dc:title>
      </cc:Work>
    </rdf:RDF>
  </metadata>
  <g
     transform="translate(-9.4328062,-9.3436022)"
     id="layer1">
    <path
       id="path1270"
       d="m 52.160596,90.727754 a 38.656408,38.656408 0 0 0 38.65653,-38.656402 38.656408,38.656408 0 0 0 -38.65651,-38.65625 38.656408,38.656408 0 0 0 -38.65631,38.65625 38.656408,38.656408 0 0 0 38.65629,38.656402 z"
       style="display:inline;opacity:1;fill:#000000;fill-opacity:1;stroke:#000000;stroke-width:8.14299965;stroke-miterlimit:4;stroke-dasharray:none;stroke-opacity:1" />
    <g
       transform="translate(-51.344624,-375.9876)"
       id="g1280"
       style="display:inline">
      <path
         style="opacity:1;fill:#7d32c1;fill-opacity:0.87441861;stroke:none;stroke-width:0.08624015;stroke-miterlimit:4;stroke-dasharray:none;stroke-opacity:1"
         d="m 126.19143,422.02436 c 0.0331,-0.033 0.0662,-0.067 0.0992,-0.098 l 0.0533,-0.053 0.001,-10e-4 c 1.79736,-1.9604 1.73259,-4.9881 -0.14678,-6.8698 -1.88469,-1.8802 -4.91636,-1.941 -6.87492,-0.1379 -8.31602,8.27744 -16.891,16.86897 -24.373719,24.3517 l -7.77e-4,8e-4 -7.87e-4,7e-4 -0.02774,0.028 h 1.1e-5 c -1.913096,1.9444 -1.900346,5.0679 0.02774,6.9972 1.929426,1.9279 5.052322,1.9402 6.996812,0.028 v 0 l 0.0288,-0.029 2.1e-4,-10e-5 2.9e-4,-2e-4 24.14854,-24.1487 c 0.0231,-0.024 0.0462,-0.046 0.0697,-0.07 z"
         id="path1272" />
      <path
         style="opacity:1;fill:#2585c6;fill-opacity:0.74883722;stroke:none;stroke-width:0.08624015;stroke-miterlimit:4;stroke-dasharray:none;stroke-opacity:1"
         d="m 80.079636,431.42276 c -0.03218,-0.034 -0.06436,-0.068 -0.09521,-0.1032 l -0.05349,-0.053 7.89e-4,-8e-4 c -1.797229,-1.9603 -1.732568,-4.9881 0.146832,-6.8697 1.882463,-1.8824 4.916287,-1.9411 6.874896,-0.1379 5.105109,5.0703 10.379202,10.3593 14.975347,14.9555 l 2e-5,-1e-4 v 0 l 0.0274,0.028 -7.9e-4,8e-4 c 1.91285,1.9448 1.90035,5.068 -0.0278,6.9972 -1.929482,1.9279 -5.052272,1.9402 -6.996833,0.028 l -7.76e-4,7e-4 -0.02896,-0.029 -2.44e-4,-3e-4 -2.33e-4,-2e-4 -14.749722,-14.756 c -0.02431,-0.022 -0.0486,-0.044 -0.0738,-0.066 z"
         id="path1274" />
      <path
         id="path1276"
         d="m 122.73691,423.44599 a 4.9468983,4.9468983 0 0 1 -4.98002,-4.91362 4.9468983,4.9468983 0 0 1 4.91335,-4.98026 4.9468983,4.9468983 0 0 1 4.98003,4.91361 4.9468983,4.9468983 0 0 1 -4.91336,4.98027 z"
         style="opacity:1;fill:#cc2be6;fill-opacity:0.45116278;stroke:none;stroke-width:15.22491741;stroke-miterlimit:4;stroke-dasharray:none;stroke-opacity:1" />
      <path
         id="path1278"
         d="m 83.604177,432.85432 a 4.9545509,4.9545509 0 0 1 -4.987706,-4.921 4.9545509,4.9545509 0 0 1 4.921502,-4.9875 4.9545509,4.9545509 0 0 1 4.987705,4.9212 4.9545509,4.9545509 0 0 1 -4.92149,4.9873 z"
         style="display:inline;opacity:1;fill:#64cde8;fill-opacity:0.42790701;stroke:none;stroke-width:15.2484684;stroke-miterlimit:4;stroke-dasharray:none;stroke-opacity:1" />
    </g>
  </g>
</svg>
