<?xml version="1.0" encoding="UTF-8" standalone="no"?>
<svg
   xmlns:dc="http://purl.org/dc/elements/1.1/"
   xmlns:cc="http://creativecommons.org/ns#"
   xmlns:rdf="http://www.w3.org/1999/02/22-rdf-syntax-ns#"
   xmlns:svg="http://www.w3.org/2000/svg"
   xmlns="http://www.w3.org/2000/svg"
   id="svg8"
   version="1.1"
   viewBox="0 0 200.85413 16.140013"
   height="16.140013mm"
   width="200.85413mm">
  <defs
     id="defs2" />
  <metadata
     id="metadata5">
    <rdf:RDF>
      <cc:Work
         rdf:about="">
        <dc:format>image/svg+xml</dc:format>
        <dc:type
           rdf:resource="http://purl.org/dc/dcmitype/StillImage" />
        <dc:title></dc:title>
      </cc:Work>
    </rdf:RDF>
  </metadata>
  <g
     style="display:inline"
     transform="translate(-10.029682,-85.341962)"
     id="layer1">
    <path
       d="m 10.029682,101.37049 c 0,0 0,-15.861164 0,-15.861164 0,0 7.790826,0 7.790826,0 0,0 0,15.861164 0,15.861164 0,0 -7.790826,0 -7.790826,0 z"
       style="fill:#ffffff;fill-opacity:1;fill-rule:nonzero;stroke:none;stroke-width:1.3374356"
       id="path1423-9" />
    <path
       d="m 35.098778,101.37049 c 0,0 0,-15.861164 0,-15.861164 0,0 7.78821,0 7.78821,0 0,0 0,15.861164 0,15.861164 0,0 -7.78821,0 -7.78821,0 z"
       style="fill:#ffffff;fill-opacity:1;fill-rule:nonzero;stroke:none;stroke-width:1.3374356"
       id="path1425-5" />
    <path
       d="m 25.377534,88.805906 c 0,0 1.114106,-2.26412 1.114106,-2.26412 0,0 1.103644,2.18117 1.103644,2.18117 0.139893,0.22986 0.250974,0.21223 0.471468,0.10257 0,0 0.946917,-0.47018 0.946917,-0.47018 0,0 -0.616442,3.04776 -0.616442,3.04776 -0.129278,0.5982 0.211547,0.77255 0.579895,0.36766 0,0 1.354391,-1.44518 1.354391,-1.44518 0,0 0.357885,0.81891 0.357885,0.81891 0.12018,0.24818 0.30443,0.21223 0.543349,0.16586 0,0 1.398823,-0.29517 1.398823,-0.29517 0,0 -0.46889,1.76779 -0.46889,1.76779 0,0 -0.0076,0.0372 -0.0076,0.0372 -0.05611,0.22986 -0.166052,0.42384 0.09137,0.53355 0,0 0.498917,0.24881 0.498917,0.24881 0,0 -2.88253,2.43911 -2.88253,2.43911 -0.293815,0.30433 -0.193349,0.39641 -0.08227,0.73599 0,0 0.265001,0.82024 0.265001,0.82024 0,0 -2.687929,-0.48849 -2.687929,-0.48849 -0.330589,-0.0823 -0.561622,-0.0823 -0.569432,0.18417 0,0 0.111081,3.083684 0.111081,3.083684 0,0 -0.81108,0 -0.81108,0 0,0 0.109564,-3.073884 0.109564,-3.073884 0,-0.30497 -0.228607,-0.29455 -0.771917,-0.18414 0,0 -2.485482,0.47868 -2.485482,0.47868 0,0 0.32111,-0.82024 0.32111,-0.82024 0.111081,-0.3128 0.138378,-0.52503 -0.109563,-0.73597 0,0 -2.946525,-2.40255 -2.946525,-2.40255 0,0 0.542022,-0.33177 0.542022,-0.33177 0.156574,-0.11889 0.168327,-0.24816 0.08378,-0.51589 0,0 -0.551196,-1.79458 -0.551196,-1.79458 0,0 1.417097,0.30432 1.417097,0.30432 0.397085,0.0914 0.506801,0 0.606053,-0.22141 0,0 0.397049,-0.80977 0.397049,-0.80977 0,0 1.400112,1.58299 1.400112,1.58299 0.24832,0.29583 0.598205,0.10116 0.4872,-0.32195 0,0 -0.672664,-3.3057 -0.672664,-3.3057 0,0 1.039649,0.60014 1.039649,0.60014 0.168327,0.10117 0.340824,0.12731 0.442769,-0.0646"
       style="fill:#ffffff;fill-opacity:1;fill-rule:nonzero;stroke:none;stroke-width:1.3374356"
       id="path1427-1" />
    <flowRoot
       transform="matrix(0.28975424,0,0,0.28975424,-6.9325832,-15.976796)"
       style="font-style:normal;font-weight:normal;font-size:40px;line-height:1.25;font-family:sans-serif;letter-spacing:0px;word-spacing:0px;fill:#000000;fill-opacity:1;stroke:none"
       id="flowRoot1461"
       xml:space="preserve"><flowRegion
         id="flowRegion1463"><rect
           y="516.80542"
           x="281.42856"
           height="110.43862"
           width="302.64352"
           id="rect1465" /></flowRegion><flowPara
         id="flowPara856"
         style="font-style:normal;font-variant:normal;font-weight:normal;font-stretch:normal;font-size:32px;line-height:4;font-family:Helvetica-Normal;-inkscape-font-specification:Helvetica-Normal">Shared Services</flowPara><flowPara
         id="flowPara872"
         style="font-style:normal;font-variant:normal;font-weight:normal;font-stretch:normal;font-size:32px;line-height:4;font-family:Helvetica-Normal;-inkscape-font-specification:Helvetica-Normal">Canada</flowPara></flowRoot>    <g
       id="flowRoot874"
       style="font-style:normal;font-weight:normal;font-size:40px;line-height:1.25;font-family:sans-serif;letter-spacing:0px;word-spacing:0px;fill:#ffffff;fill-opacity:1;stroke:none"
       transform="matrix(0.22787185,0,0,0.22787185,-5.4227533,-30.787341)"
       aria-label="Shared Services
">
      <path
         id="path941"
         style="font-style:normal;font-variant:normal;font-weight:normal;font-stretch:normal;line-height:0;font-family:Helvetica-Normal;-inkscape-font-specification:Helvetica-Normal;letter-spacing:0.05805529px;fill:#ffffff;fill-opacity:1"
         d="m 274.73742,530.28759 h 3.8 q 0,3.56 2.36,5.28 2.4,1.68 5.28,1.8 0.08,0 0.16,0 0.08,0 0.16,0 2.56,0 4.68,-1.16 2.16,-1.2 2.48,-3.4 0.04,-0.16 0.04,-0.28 0,-0.16 0,-0.32 0,-2.8 -2.36,-3.76 -2.32,-1 -5.32,-1.6 -0.36,-0.08 -0.68,-0.12 -0.32,-0.08 -0.64,-0.16 -3.56,-0.76 -6.48,-2.4 -2.88,-1.64 -2.52,-6.48 0.24,-3.08 2.84,-5.32 2.6,-2.24 7.56,-2.24 4.96,0 7.92,2.28 3,2.28 2.76,6.52 h -3.76 q 0,-0.08 0,-0.12 0,-0.04 0,-0.12 0,-0.04 0,-0.08 0,-0.08 0,-0.12 0,-2.48 -2.12,-3.8 -2.08,-1.32 -4.6,-1.4 -0.08,0 -0.16,0 -0.04,0 -0.08,0 -2.44,0 -4.48,1.24 -2,1.2 -2.12,3.8 0.32,2.12 2.4,3 2.12,0.84 4.88,1.44 0.48,0.12 1,0.24 0.52,0.12 1.04,0.24 3.24,0.76 6,2.32 2.8,1.52 3.28,5.36 0.24,4.76 -3.44,7.24 -3.68,2.48 -8.16,2.56 -0.04,0 -0.08,0 0,0 -0.04,0 -4.4,0 -8.08,-2.52 -3.64,-2.56 -3.52,-7.92 z" />
      <path
         id="path943"
         style="font-style:normal;font-variant:normal;font-weight:normal;font-stretch:normal;line-height:0;font-family:Helvetica-Normal;-inkscape-font-specification:Helvetica-Normal;letter-spacing:0.05805529px;fill:#ffffff;fill-opacity:1"
         d="m 302.23235,539.72759 v -29.6 h 3.48 v 11 q 1.08,-1.44 2.72,-2.28 1.64,-0.84 3.44,-1 0.16,0 0.32,0 0.2,-0.04 0.4,-0.04 2.36,0 4.28,1.36 1.96,1.36 2.36,4.2 v 16.36 h -3.44 q 0,-1.36 0,-2.76 0,-1.44 0,-2.88 0,-2.04 0,-4.04 0,-2.04 0,-3.88 0.08,-0.4 0.12,-0.72 0.04,-0.36 0.04,-0.68 0,-2.12 -1.24,-3.08 -1.2,-0.96 -2.84,-0.96 -0.28,0 -0.56,0.04 -0.24,0 -0.52,0.04 -1.92,0.36 -3.52,1.76 -1.56,1.4 -1.56,3.6 v 13.56 h -3.48 z" />
      <path
         id="path945"
         style="font-style:normal;font-variant:normal;font-weight:normal;font-stretch:normal;line-height:0;font-family:Helvetica-Normal;-inkscape-font-specification:Helvetica-Normal;letter-spacing:0.05805529px;fill:#ffffff;fill-opacity:1"
         d="m 323.67416,534.04759 q 0.24,-2.12 1.48,-3.84 1.28,-1.76 5.76,-2.44 5.36,-0.44 6.2,-1.08 0.84,-0.68 0.76,-2.48 0,-0.2 0,-0.4 0,-0.2 0,-0.44 0,-0.12 -0.04,-0.2 -0.04,-0.12 -0.12,-0.24 -0.44,-0.6 -1.8,-1.12 -1.36,-0.56 -2.88,-0.64 -0.12,0 -0.24,0 -0.08,0 -0.2,0 -1.72,0 -3.12,0.84 -1.36,0.8 -1.36,2.92 h -3.16 q 0,-0.08 0,-0.12 0,-0.08 0,-0.16 -0.04,-0.08 -0.04,-0.12 0,-0.08 0,-0.16 0,-0.16 0,-0.32 0.04,-0.2 0.04,-0.4 0.24,-2.12 2.08,-3.88 1.88,-1.76 5.8,-1.76 0.64,0 1.32,0.08 0.68,0.04 1.36,0.2 2.16,0.44 3.96,1.56 1.84,1.08 1.84,2.88 v 12.92 q 0,0.8 0.36,1.4 0.4,0.56 1.28,0.56 0.12,0 0.24,0 0.16,-0.04 0.32,-0.08 v 2.52 l -2.2,0.32 q -0.16,0.04 -0.36,0.04 -0.16,0.04 -0.32,0.04 -0.92,0 -1.48,-0.56 -0.56,-0.56 -0.88,-1.24 -0.16,-0.32 -0.24,-0.6 -0.08,-0.28 -0.16,-0.52 -2.04,1.64 -3.92,2.32 -1.88,0.72 -3.48,0.72 -3,0 -4.84,-1.84 -1.84,-1.84 -1.96,-4.04 0,-0.16 0,-0.32 0,-0.16 0,-0.32 z m 13.88,-4.72 q -0.32,0.4 -1.16,0.6 -0.84,0.16 -1.92,0.28 -0.44,0.08 -0.92,0.16 -0.48,0.04 -0.96,0.08 -1.92,0.32 -3.52,1.12 -1.6,0.76 -1.6,2.8 0.36,1.64 1.4,2.36 1.08,0.68 2.4,0.68 0.28,0 0.56,0 0.32,-0.04 0.6,-0.12 1.72,-0.28 3.2,-1.32 1.52,-1.04 1.84,-2.2 0.04,-0.08 0.04,-0.16 0.04,-0.08 0.04,-0.16 v -4.12 z" />
      <path
         id="path947"
         style="font-style:normal;font-variant:normal;font-weight:normal;font-stretch:normal;line-height:0;font-family:Helvetica-Normal;-inkscape-font-specification:Helvetica-Normal;letter-spacing:0.05805529px;fill:#ffffff;fill-opacity:1"
         d="m 347.35596,539.72759 v -21.12 h 3.44 v 2.84 q 0.16,-0.2 0.28,-0.4 0.16,-0.2 0.32,-0.4 1,-1.32 2.28,-2.08 1.28,-0.76 3.76,-0.56 v 3.76 q -3.28,0 -4.96,1.48 -1.68,1.44 -1.68,4.52 v 11.96 h -3.44 z" />
      <path
         id="path949"
         style="font-style:normal;font-variant:normal;font-weight:normal;font-stretch:normal;line-height:0;font-family:Helvetica-Normal;-inkscape-font-specification:Helvetica-Normal;letter-spacing:0.05805529px;fill:#ffffff;fill-opacity:1"
         d="m 359.33715,529.00759 q 0.48,-4.96 2.76,-7.96 2.28,-3.04 7,-3.04 4.88,0 6.84,2.88 1.96,2.84 2.44,6.24 0.12,0.88 0.16,1.76 0.04,0.88 0.04,1.72 h -15.44 q 0.12,3.6 1.72,5.2 1.64,1.6 3.6,1.6 0.08,0 0.16,0 0.12,0 0.2,0 1.76,-0.12 3.32,-1.24 1.6,-1.12 2.32,-3.04 h 3.48 q -0.24,3.28 -2.64,5.12 -2.4,1.84 -6.2,2.08 -4.56,-0.16 -6.72,-2.48 -2.16,-2.36 -2.76,-5.16 -0.24,-0.96 -0.32,-1.88 -0.04,-0.96 0.04,-1.8 z m 3.8,-1.56 h 11.64 q -0.24,-3.2 -1.88,-4.84 -1.64,-1.68 -3.64,-1.68 -0.08,0 -0.16,0 -0.08,0 -0.16,0 -1.88,0.12 -3.56,1.76 -1.68,1.6 -2.24,4.76 z" />
      <path
         id="path951"
         style="font-style:normal;font-variant:normal;font-weight:normal;font-stretch:normal;line-height:0;font-family:Helvetica-Normal;-inkscape-font-specification:Helvetica-Normal;letter-spacing:0.05805529px;fill:#ffffff;fill-opacity:1"
         d="m 381.41895,527.12759 q 0.64,-4.8 2.96,-6.92 2.32,-2.16 5,-2.4 0.16,-0.04 0.32,-0.04 0.2,0 0.36,0 2,0 3.76,0.84 1.76,0.84 2.72,2.24 v -10.4 h 3.48 v 29.28 h -2.84 q 0,-0.48 0,-1.12 0,-0.68 0,-1.4 -0.8,1.6 -2.68,2.56 -1.84,0.96 -4,0.96 -0.28,0 -0.56,-0.04 -0.24,0 -0.48,-0.04 -3.28,-0.36 -5.92,-3.48 -2.64,-3.12 -2.12,-10.04 z m 3.8,1.88 q -0.12,4 1.72,6.24 1.84,2.24 4.04,2.28 0.04,0 0.04,0 0.04,0 0.08,0 2.08,0 3.76,-2.04 1.68,-2.04 1.68,-6.48 0,-3.76 -1.76,-5.64 -1.76,-1.88 -3.84,-1.92 -0.04,0 -0.08,0 0,0 -0.04,0 -2.2,-0.04 -4.04,1.92 -1.8,1.92 -1.56,5.64 z" />
      <path
         id="path953"
         style="font-style:normal;font-variant:normal;font-weight:normal;font-stretch:normal;line-height:0;font-family:Helvetica-Normal;-inkscape-font-specification:Helvetica-Normal;letter-spacing:0.05805529px;fill:#ffffff;fill-opacity:1"
         d="m 415.53443,530.28759 h 3.8 q 0,3.56 2.36,5.28 2.4,1.68 5.28,1.8 0.08,0 0.16,0 0.08,0 0.16,0 2.56,0 4.68,-1.16 2.16,-1.2 2.48,-3.4 0.04,-0.16 0.04,-0.28 0,-0.16 0,-0.32 0,-2.8 -2.36,-3.76 -2.32,-1 -5.32,-1.6 -0.36,-0.08 -0.68,-0.12 -0.32,-0.08 -0.64,-0.16 -3.56,-0.76 -6.48,-2.4 -2.88,-1.64 -2.52,-6.48 0.24,-3.08 2.84,-5.32 2.6,-2.24 7.56,-2.24 4.96,0 7.92,2.28 3,2.28 2.76,6.52 h -3.76 q 0,-0.08 0,-0.12 0,-0.04 0,-0.12 0,-0.04 0,-0.08 0,-0.08 0,-0.12 0,-2.48 -2.12,-3.8 -2.08,-1.32 -4.6,-1.4 -0.08,0 -0.16,0 -0.04,0 -0.08,0 -2.44,0 -4.48,1.24 -2,1.2 -2.12,3.8 0.32,2.12 2.4,3 2.12,0.84 4.88,1.44 0.48,0.12 1,0.24 0.52,0.12 1.04,0.24 3.24,0.76 6,2.32 2.8,1.52 3.28,5.36 0.24,4.76 -3.44,7.24 -3.68,2.48 -8.16,2.56 -0.04,0 -0.08,0 0,0 -0.04,0 -4.4,0 -8.08,-2.52 -3.64,-2.56 -3.52,-7.92 z" />
      <path
         id="path955"
         style="font-style:normal;font-variant:normal;font-weight:normal;font-stretch:normal;line-height:0;font-family:Helvetica-Normal;-inkscape-font-specification:Helvetica-Normal;letter-spacing:0.05805529px;fill:#ffffff;fill-opacity:1"
         d="m 442.06937,529.00759 q 0.48,-4.96 2.76,-7.96 2.28,-3.04 7,-3.04 4.88,0 6.84,2.88 1.96,2.84 2.44,6.24 0.12,0.88 0.16,1.76 0.04,0.88 0.04,1.72 h -15.44 q 0.12,3.6 1.72,5.2 1.64,1.6 3.6,1.6 0.08,0 0.16,0 0.12,0 0.2,0 1.76,-0.12 3.32,-1.24 1.6,-1.12 2.32,-3.04 h 3.48 q -0.24,3.28 -2.64,5.12 -2.4,1.84 -6.2,2.08 -4.56,-0.16 -6.72,-2.48 -2.16,-2.36 -2.76,-5.16 -0.24,-0.96 -0.32,-1.88 -0.04,-0.96 0.04,-1.8 z m 3.8,-1.56 h 11.64 q -0.24,-3.2 -1.88,-4.84 -1.64,-1.68 -3.64,-1.68 -0.08,0 -0.16,0 -0.08,0 -0.16,0 -1.88,0.12 -3.56,1.76 -1.68,1.6 -2.24,4.76 z" />
      <path
         id="path957"
         style="font-style:normal;font-variant:normal;font-weight:normal;font-stretch:normal;line-height:0;font-family:Helvetica-Normal;-inkscape-font-specification:Helvetica-Normal;letter-spacing:0.05805529px;fill:#ffffff;fill-opacity:1"
         d="m 465.75116,539.72759 v -21.12 h 3.44 v 2.84 q 0.16,-0.2 0.28,-0.4 0.16,-0.2 0.32,-0.4 1,-1.32 2.28,-2.08 1.28,-0.76 3.76,-0.56 v 3.76 q -3.28,0 -4.96,1.48 -1.68,1.44 -1.68,4.52 v 11.96 h -3.44 z" />
      <path
         id="path959"
         style="font-style:normal;font-variant:normal;font-weight:normal;font-stretch:normal;line-height:0;font-family:Helvetica-Normal;-inkscape-font-specification:Helvetica-Normal;letter-spacing:0.05805529px;fill:#ffffff;fill-opacity:1"
         d="m 483.73235,539.72759 -7.24,-21.12 h 3.76 l 5.36,17.04 6.32,-17.04 h 3.76 l -8.2,21.12 h -3.76 z" />
      <path
         id="path961"
         style="font-style:normal;font-variant:normal;font-weight:normal;font-stretch:normal;line-height:0;font-family:Helvetica-Normal;-inkscape-font-specification:Helvetica-Normal;letter-spacing:0.05805529px;fill:#ffffff;fill-opacity:1"
         d="m 498.90666,539.72759 v -21.12 h 3.48 v 21.12 h -3.48 z m 0,-24.88 v -4.4 h 3.48 v 4.4 h -3.48 z" />
      <path
         id="path963"
         style="font-style:normal;font-variant:normal;font-weight:normal;font-stretch:normal;line-height:0;font-family:Helvetica-Normal;-inkscape-font-specification:Helvetica-Normal;letter-spacing:0.05805529px;fill:#ffffff;fill-opacity:1"
         d="m 506.51284,527.44759 q 0.72,-4.28 3.08,-6.72 2.4,-2.48 6.4,-2.72 0.72,0 1.56,0.12 0.84,0.12 1.76,0.44 1.76,0.64 3.28,2.32 1.56,1.68 1.88,5 h -3.44 q -0.28,-2.28 -1.64,-3.4 -1.36,-1.12 -3,-1.12 -0.2,0 -0.44,0.04 -0.2,0 -0.4,0.04 -2.16,0.36 -3.92,2.52 -1.76,2.12 -1.64,6 0.12,4 1.8,5.8 1.72,1.8 3.72,1.84 0.04,0 0.04,0 0.04,0 0.08,0 2,0 3.64,-1.4 1.64,-1.4 1.76,-3.72 h 3.44 q 0,3.76 -2.52,6 -2.48,2.24 -6.28,2.44 -0.44,-0.04 -0.92,-0.08 -0.48,-0.04 -0.96,-0.16 -2.92,-0.56 -5.32,-3.24 -2.36,-2.68 -1.96,-10 z" />
      <path
         id="path965"
         style="font-style:normal;font-variant:normal;font-weight:normal;font-stretch:normal;line-height:0;font-family:Helvetica-Normal;-inkscape-font-specification:Helvetica-Normal;letter-spacing:0.05805529px;fill:#ffffff;fill-opacity:1"
         d="m 527.04714,529.00759 q 0.48,-4.96 2.76,-7.96 2.28,-3.04 7,-3.04 4.88,0 6.84,2.88 1.96,2.84 2.44,6.24 0.12,0.88 0.16,1.76 0.04,0.88 0.04,1.72 h -15.44 q 0.12,3.6 1.72,5.2 1.64,1.6 3.6,1.6 0.08,0 0.16,0 0.12,0 0.2,0 1.76,-0.12 3.32,-1.24 1.6,-1.12 2.32,-3.04 h 3.48 q -0.24,3.28 -2.64,5.12 -2.4,1.84 -6.2,2.08 -4.56,-0.16 -6.72,-2.48 -2.16,-2.36 -2.76,-5.16 -0.24,-0.96 -0.32,-1.88 -0.04,-0.96 0.04,-1.8 z m 3.8,-1.56 h 11.64 q -0.24,-3.2 -1.88,-4.84 -1.64,-1.68 -3.64,-1.68 -0.08,0 -0.16,0 -0.08,0 -0.16,0 -1.88,0.12 -3.56,1.76 -1.68,1.6 -2.24,4.76 z" />
      <path
         id="path967"
         style="font-style:normal;font-variant:normal;font-weight:normal;font-stretch:normal;line-height:0;font-family:Helvetica-Normal;-inkscape-font-specification:Helvetica-Normal;letter-spacing:0.05805529px;fill:#ffffff;fill-opacity:1"
         d="m 549.12895,533.44759 q 0.64,0 1.44,0 0.8,0 1.64,0 0.08,0 0.16,0 0.12,0 0.24,0 0.24,2.4 1.8,3.44 1.56,1.04 3.4,1.08 0.04,0 0.04,0 0.04,0 0.08,0 1.92,0 3.48,-0.92 1.6,-0.92 1.6,-2.36 0.12,-1.68 -1.44,-2.36 -1.56,-0.68 -3.68,-1.16 -0.36,-0.08 -0.76,-0.16 -0.36,-0.08 -0.76,-0.2 -2.6,-0.6 -4.72,-1.88 -2.12,-1.28 -1.88,-4.64 0.24,-2.6 1.84,-4.04 1.64,-1.48 5.4,-1.92 0.68,0 1.44,0.04 0.76,0.04 1.56,0.16 2,0.32 3.68,1.6 1.68,1.28 1.84,4.48 h -3.48 q -0.28,-1.76 -1.52,-2.52 -1.2,-0.76 -2.64,-0.76 -0.12,0 -0.24,0 -0.08,0 -0.2,0 -1.68,0.12 -3.12,1 -1.4,0.84 -1.4,1.96 -0.12,1.6 1.44,2.28 1.56,0.68 3.72,1.2 0.4,0.08 0.8,0.2 0.4,0.08 0.8,0.16 2.56,0.64 4.68,1.84 2.12,1.16 2.12,4.08 0,0.04 0,0.12 0,0.04 0,0.08 0,0.04 0,0.12 0,0.04 0,0.08 0,0.12 0,0.24 0,0.12 0,0.24 -0.2,2.16 -2.32,4 -2.12,1.8 -6.2,2 -0.04,0 -0.12,0 -0.04,0 -0.08,0 -0.08,-0.04 -0.12,-0.04 -0.04,0 -0.12,0 -0.68,-0.04 -1.44,-0.12 -0.76,-0.08 -1.52,-0.24 -2.04,-0.44 -3.76,-1.88 -1.68,-1.44 -1.68,-5.2 z" />
    </g>
    <g
       id="flowRoot874-1"
       style="font-style:normal;font-weight:normal;font-size:40px;line-height:1.25;font-family:sans-serif;letter-spacing:0px;word-spacing:0px;fill:#ffffff;fill-opacity:1;stroke:none"
       transform="matrix(0.22787185,0,0,0.22787185,75.470351,-30.828836)"
       aria-label="Services partagés
">
      <path
         id="path908"
         style="font-style:normal;font-variant:normal;font-weight:normal;font-stretch:normal;line-height:0;font-family:Helvetica-Normal;-inkscape-font-specification:Helvetica-Normal;letter-spacing:0.11611058px;fill:#ffffff;fill-opacity:1"
         d="m 274.73742,530.28759 h 3.8 q 0,3.56 2.36,5.28 2.4,1.68 5.28,1.8 0.08,0 0.16,0 0.08,0 0.16,0 2.56,0 4.68,-1.16 2.16,-1.2 2.48,-3.4 0.04,-0.16 0.04,-0.28 0,-0.16 0,-0.32 0,-2.8 -2.36,-3.76 -2.32,-1 -5.32,-1.6 -0.36,-0.08 -0.68,-0.12 -0.32,-0.08 -0.64,-0.16 -3.56,-0.76 -6.48,-2.4 -2.88,-1.64 -2.52,-6.48 0.24,-3.08 2.84,-5.32 2.6,-2.24 7.56,-2.24 4.96,0 7.92,2.28 3,2.28 2.76,6.52 h -3.76 q 0,-0.08 0,-0.12 0,-0.04 0,-0.12 0,-0.04 0,-0.08 0,-0.08 0,-0.12 0,-2.48 -2.12,-3.8 -2.08,-1.32 -4.6,-1.4 -0.08,0 -0.16,0 -0.04,0 -0.08,0 -2.44,0 -4.48,1.24 -2,1.2 -2.12,3.8 0.32,2.12 2.4,3 2.12,0.84 4.88,1.44 0.48,0.12 1,0.24 0.52,0.12 1.04,0.24 3.24,0.76 6,2.32 2.8,1.52 3.28,5.36 0.24,4.76 -3.44,7.24 -3.68,2.48 -8.16,2.56 -0.04,0 -0.08,0 0,0 -0.04,0 -4.4,0 -8.08,-2.52 -3.64,-2.56 -3.52,-7.92 z" />
      <path
         id="path910"
         style="font-style:normal;font-variant:normal;font-weight:normal;font-stretch:normal;line-height:0;font-family:Helvetica-Normal;-inkscape-font-specification:Helvetica-Normal;letter-spacing:0.11611058px;fill:#ffffff;fill-opacity:1"
         d="m 301.33041,529.00759 q 0.48,-4.96 2.76,-7.96 2.28,-3.04 7,-3.04 4.88,0 6.84,2.88 1.96,2.84 2.44,6.24 0.12,0.88 0.16,1.76 0.04,0.88 0.04,1.72 h -15.44 q 0.12,3.6 1.72,5.2 1.64,1.6 3.6,1.6 0.08,0 0.16,0 0.12,0 0.2,0 1.76,-0.12 3.32,-1.24 1.6,-1.12 2.32,-3.04 h 3.48 q -0.24,3.28 -2.64,5.12 -2.4,1.84 -6.2,2.08 -4.56,-0.16 -6.72,-2.48 -2.16,-2.36 -2.76,-5.16 -0.24,-0.96 -0.32,-1.88 -0.04,-0.96 0.04,-1.8 z m 3.8,-1.56 h 11.64 q -0.24,-3.2 -1.88,-4.84 -1.64,-1.68 -3.64,-1.68 -0.08,0 -0.16,0 -0.08,0 -0.16,0 -1.88,0.12 -3.56,1.76 -1.68,1.6 -2.24,4.76 z" />
      <path
         id="path912"
         style="font-style:normal;font-variant:normal;font-weight:normal;font-stretch:normal;line-height:0;font-family:Helvetica-Normal;-inkscape-font-specification:Helvetica-Normal;letter-spacing:0.11611058px;fill:#ffffff;fill-opacity:1"
         d="m 325.07027,539.72759 v -21.12 h 3.44 v 2.84 q 0.16,-0.2 0.28,-0.4 0.16,-0.2 0.32,-0.4 1,-1.32 2.28,-2.08 1.28,-0.76 3.76,-0.56 v 3.76 q -3.28,0 -4.96,1.48 -1.68,1.44 -1.68,4.52 v 11.96 h -3.44 z" />
      <path
         id="path914"
         style="font-style:normal;font-variant:normal;font-weight:normal;font-stretch:normal;line-height:0;font-family:Helvetica-Normal;-inkscape-font-specification:Helvetica-Normal;letter-spacing:0.11611058px;fill:#ffffff;fill-opacity:1"
         d="m 343.1095,539.72759 -7.24,-21.12 h 3.76 l 5.36,17.04 6.32,-17.04 h 3.76 l -8.2,21.12 h -3.76 z" />
      <path
         id="path916"
         style="font-style:normal;font-variant:normal;font-weight:normal;font-stretch:normal;line-height:0;font-family:Helvetica-Normal;-inkscape-font-specification:Helvetica-Normal;letter-spacing:0.11611058px;fill:#ffffff;fill-opacity:1"
         d="m 358.34186,539.72759 v -21.12 h 3.48 v 21.12 h -3.48 z m 0,-24.88 v -4.4 h 3.48 v 4.4 h -3.48 z" />
      <path
         id="path918"
         style="font-style:normal;font-variant:normal;font-weight:normal;font-stretch:normal;line-height:0;font-family:Helvetica-Normal;-inkscape-font-specification:Helvetica-Normal;letter-spacing:0.11611058px;fill:#ffffff;fill-opacity:1"
         d="m 366.0061,527.44759 q 0.72,-4.28 3.08,-6.72 2.4,-2.48 6.4,-2.72 0.72,0 1.56,0.12 0.84,0.12 1.76,0.44 1.76,0.64 3.28,2.32 1.56,1.68 1.88,5 h -3.44 q -0.28,-2.28 -1.64,-3.4 -1.36,-1.12 -3,-1.12 -0.2,0 -0.44,0.04 -0.2,0 -0.4,0.04 -2.16,0.36 -3.92,2.52 -1.76,2.12 -1.64,6 0.12,4 1.8,5.8 1.72,1.8 3.72,1.84 0.04,0 0.04,0 0.04,0 0.08,0 2,0 3.64,-1.4 1.64,-1.4 1.76,-3.72 h 3.44 q 0,3.76 -2.52,6 -2.48,2.24 -6.28,2.44 -0.44,-0.04 -0.92,-0.08 -0.48,-0.04 -0.96,-0.16 -2.92,-0.56 -5.32,-3.24 -2.36,-2.68 -1.96,-10 z" />
      <path
         id="path920"
         style="font-style:normal;font-variant:normal;font-weight:normal;font-stretch:normal;line-height:0;font-family:Helvetica-Normal;-inkscape-font-specification:Helvetica-Normal;letter-spacing:0.11611058px;fill:#ffffff;fill-opacity:1"
         d="m 386.59846,529.00759 q 0.48,-4.96 2.76,-7.96 2.28,-3.04 7,-3.04 4.88,0 6.84,2.88 1.96,2.84 2.44,6.24 0.12,0.88 0.16,1.76 0.04,0.88 0.04,1.72 h -15.44 q 0.12,3.6 1.72,5.2 1.64,1.6 3.6,1.6 0.08,0 0.16,0 0.12,0 0.2,0 1.76,-0.12 3.32,-1.24 1.6,-1.12 2.32,-3.04 h 3.48 q -0.24,3.28 -2.64,5.12 -2.4,1.84 -6.2,2.08 -4.56,-0.16 -6.72,-2.48 -2.16,-2.36 -2.76,-5.16 -0.24,-0.96 -0.32,-1.88 -0.04,-0.96 0.04,-1.8 z m 3.8,-1.56 h 11.64 q -0.24,-3.2 -1.88,-4.84 -1.64,-1.68 -3.64,-1.68 -0.08,0 -0.16,0 -0.08,0 -0.16,0 -1.88,0.12 -3.56,1.76 -1.68,1.6 -2.24,4.76 z" />
      <path
         id="path922"
         style="font-style:normal;font-variant:normal;font-weight:normal;font-stretch:normal;line-height:0;font-family:Helvetica-Normal;-inkscape-font-specification:Helvetica-Normal;letter-spacing:0.11611058px;fill:#ffffff;fill-opacity:1"
         d="m 408.73832,533.44759 q 0.64,0 1.44,0 0.8,0 1.64,0 0.08,0 0.16,0 0.12,0 0.24,0 0.24,2.4 1.8,3.44 1.56,1.04 3.4,1.08 0.04,0 0.04,0 0.04,0 0.08,0 1.92,0 3.48,-0.92 1.6,-0.92 1.6,-2.36 0.12,-1.68 -1.44,-2.36 -1.56,-0.68 -3.68,-1.16 -0.36,-0.08 -0.76,-0.16 -0.36,-0.08 -0.76,-0.2 -2.6,-0.6 -4.72,-1.88 -2.12,-1.28 -1.88,-4.64 0.24,-2.6 1.84,-4.04 1.64,-1.48 5.4,-1.92 0.68,0 1.44,0.04 0.76,0.04 1.56,0.16 2,0.32 3.68,1.6 1.68,1.28 1.84,4.48 h -3.48 q -0.28,-1.76 -1.52,-2.52 -1.2,-0.76 -2.64,-0.76 -0.12,0 -0.24,0 -0.08,0 -0.2,0 -1.68,0.12 -3.12,1 -1.4,0.84 -1.4,1.96 -0.12,1.6 1.44,2.28 1.56,0.68 3.72,1.2 0.4,0.08 0.8,0.2 0.4,0.08 0.8,0.16 2.56,0.64 4.68,1.84 2.12,1.16 2.12,4.08 0,0.04 0,0.12 0,0.04 0,0.08 0,0.04 0,0.12 0,0.04 0,0.08 0,0.12 0,0.24 0,0.12 0,0.24 -0.2,2.16 -2.32,4 -2.12,1.8 -6.2,2 -0.04,0 -0.12,0 -0.04,0 -0.08,0 -0.08,-0.04 -0.12,-0.04 -0.04,0 -0.12,0 -0.68,-0.04 -1.44,-0.12 -0.76,-0.08 -1.52,-0.24 -2.04,-0.44 -3.76,-1.88 -1.68,-1.44 -1.68,-5.2 z" />
      <path
         id="path924"
         style="font-style:normal;font-variant:normal;font-weight:normal;font-stretch:normal;line-height:0;font-family:Helvetica-Normal;-inkscape-font-specification:Helvetica-Normal;letter-spacing:0.11611058px;fill:#ffffff;fill-opacity:1"
         d="m 441.10242,548.52759 v -29.92 h 3.16 v 2.52 q 0.12,-0.16 0.24,-0.32 0.16,-0.2 0.36,-0.36 0.92,-0.88 2.52,-1.6 1.64,-0.76 3.56,-0.8 0.76,0 1.56,0.16 0.84,0.16 1.64,0.52 0.72,0.28 1.4,0.76 0.68,0.44 1.32,1.04 0.12,0.12 0.24,0.28 0.12,0.16 0.24,0.32 1,1.4 1.84,3.76 0.84,2.32 0.88,5 0,0.44 -0.04,0.88 0,0.4 -0.08,0.84 -0.2,1.72 -0.96,3.4 -0.72,1.68 -2.12,3.16 -0.88,1 -2.48,1.72 -1.6,0.76 -3.48,0.76 -0.36,0 -0.76,-0.04 -0.36,-0.04 -0.76,-0.12 -1.24,-0.24 -2.48,-0.92 -1.24,-0.72 -2.32,-2.04 v 11 h -3.48 z m 3.48,-19.52 q 0,4.12 1.76,6.08 1.76,1.92 3.92,1.92 0.04,0 0.08,0 0.08,0 0.16,0 2.16,-0.08 3.96,-1.96 1.8,-1.88 1.8,-5.28 0,-0.28 0,-0.52 0,-0.28 -0.04,-0.56 -0.4,-3.8 -2.08,-5.48 -1.68,-1.72 -3.64,-1.72 -2.28,0 -4.16,2.04 -1.88,2.04 -1.76,5.48 z" />
      <path
         id="path926"
         style="font-style:normal;font-variant:normal;font-weight:normal;font-stretch:normal;line-height:0;font-family:Helvetica-Normal;-inkscape-font-specification:Helvetica-Normal;letter-spacing:0.11611058px;fill:#ffffff;fill-opacity:1"
         d="m 462.92227,534.04759 q 0.24,-2.12 1.48,-3.84 1.28,-1.76 5.76,-2.44 5.36,-0.44 6.2,-1.08 0.84,-0.68 0.76,-2.48 0,-0.2 0,-0.4 0,-0.2 0,-0.44 0,-0.12 -0.04,-0.2 -0.04,-0.12 -0.12,-0.24 -0.44,-0.6 -1.8,-1.12 -1.36,-0.56 -2.88,-0.64 -0.12,0 -0.24,0 -0.08,0 -0.2,0 -1.72,0 -3.12,0.84 -1.36,0.8 -1.36,2.92 h -3.16 q 0,-0.08 0,-0.12 0,-0.08 0,-0.16 -0.04,-0.08 -0.04,-0.12 0,-0.08 0,-0.16 0,-0.16 0,-0.32 0.04,-0.2 0.04,-0.4 0.24,-2.12 2.08,-3.88 1.88,-1.76 5.8,-1.76 0.64,0 1.32,0.08 0.68,0.04 1.36,0.2 2.16,0.44 3.96,1.56 1.84,1.08 1.84,2.88 v 12.92 q 0,0.8 0.36,1.4 0.4,0.56 1.28,0.56 0.12,0 0.24,0 0.16,-0.04 0.32,-0.08 v 2.52 l -2.2,0.32 q -0.16,0.04 -0.36,0.04 -0.16,0.04 -0.32,0.04 -0.92,0 -1.48,-0.56 -0.56,-0.56 -0.88,-1.24 -0.16,-0.32 -0.24,-0.6 -0.08,-0.28 -0.16,-0.52 -2.04,1.64 -3.92,2.32 -1.88,0.72 -3.48,0.72 -3,0 -4.84,-1.84 -1.84,-1.84 -1.96,-4.04 0,-0.16 0,-0.32 0,-0.16 0,-0.32 z m 13.88,-4.72 q -0.32,0.4 -1.16,0.6 -0.84,0.16 -1.92,0.28 -0.44,0.08 -0.92,0.16 -0.48,0.04 -0.96,0.08 -1.92,0.32 -3.52,1.12 -1.6,0.76 -1.6,2.8 0.36,1.64 1.4,2.36 1.08,0.68 2.4,0.68 0.28,0 0.56,0 0.32,-0.04 0.6,-0.12 1.72,-0.28 3.2,-1.32 1.52,-1.04 1.84,-2.2 0.04,-0.08 0.04,-0.16 0.04,-0.08 0.04,-0.16 v -4.12 z" />
      <path
         id="path928"
         style="font-style:normal;font-variant:normal;font-weight:normal;font-stretch:normal;line-height:0;font-family:Helvetica-Normal;-inkscape-font-specification:Helvetica-Normal;letter-spacing:0.11611058px;fill:#ffffff;fill-opacity:1"
         d="m 486.66214,539.72759 v -21.12 h 3.44 v 2.84 q 0.16,-0.2 0.28,-0.4 0.16,-0.2 0.32,-0.4 1,-1.32 2.28,-2.08 1.28,-0.76 3.76,-0.56 v 3.76 q -3.28,0 -4.96,1.48 -1.68,1.44 -1.68,4.52 v 11.96 h -3.44 z" />
      <path
         id="path930"
         style="font-style:normal;font-variant:normal;font-weight:normal;font-stretch:normal;line-height:0;font-family:Helvetica-Normal;-inkscape-font-specification:Helvetica-Normal;letter-spacing:0.11611058px;fill:#ffffff;fill-opacity:1"
         d="m 500.30137,537.20759 v -15.12 h -2.84 v -3.48 h 2.84 v -5.64 h 3.44 v 5.64 h 3.48 v 3.48 h -3.48 v 13.24 q 0.16,1.24 0.6,1.64 0.44,0.4 1.04,0.4 0.2,0 0.4,0 0.24,-0.04 0.48,-0.08 0.24,-0.04 0.48,-0.04 0.24,-0.04 0.48,-0.04 v 3.16 q -0.64,0.04 -1.28,0.08 -0.6,0.08 -1.16,0.08 -1.96,0 -3.12,-0.76 -1.16,-0.72 -1.36,-2.56 z" />
      <path
         id="path932"
         style="font-style:normal;font-variant:normal;font-weight:normal;font-stretch:normal;line-height:0;font-family:Helvetica-Normal;-inkscape-font-specification:Helvetica-Normal;letter-spacing:0.11611058px;fill:#ffffff;fill-opacity:1"
         d="m 509.8331,534.04759 q 0.24,-2.12 1.48,-3.84 1.28,-1.76 5.76,-2.44 5.36,-0.44 6.2,-1.08 0.84,-0.68 0.76,-2.48 0,-0.2 0,-0.4 0,-0.2 0,-0.44 0,-0.12 -0.04,-0.2 -0.04,-0.12 -0.12,-0.24 -0.44,-0.6 -1.8,-1.12 -1.36,-0.56 -2.88,-0.64 -0.12,0 -0.24,0 -0.08,0 -0.2,0 -1.72,0 -3.12,0.84 -1.36,0.8 -1.36,2.92 h -3.16 q 0,-0.08 0,-0.12 0,-0.08 0,-0.16 -0.04,-0.08 -0.04,-0.12 0,-0.08 0,-0.16 0,-0.16 0,-0.32 0.04,-0.2 0.04,-0.4 0.24,-2.12 2.08,-3.88 1.88,-1.76 5.8,-1.76 0.64,0 1.32,0.08 0.68,0.04 1.36,0.2 2.16,0.44 3.96,1.56 1.84,1.08 1.84,2.88 v 12.92 q 0,0.8 0.36,1.4 0.4,0.56 1.28,0.56 0.12,0 0.24,0 0.16,-0.04 0.32,-0.08 v 2.52 l -2.2,0.32 q -0.16,0.04 -0.36,0.04 -0.16,0.04 -0.32,0.04 -0.92,0 -1.48,-0.56 -0.56,-0.56 -0.88,-1.24 -0.16,-0.32 -0.24,-0.6 -0.08,-0.28 -0.16,-0.52 -2.04,1.64 -3.92,2.32 -1.88,0.72 -3.48,0.72 -3,0 -4.84,-1.84 -1.84,-1.84 -1.96,-4.04 0,-0.16 0,-0.32 0,-0.16 0,-0.32 z m 13.88,-4.72 q -0.32,0.4 -1.16,0.6 -0.84,0.16 -1.92,0.28 -0.44,0.08 -0.92,0.16 -0.48,0.04 -0.96,0.08 -1.92,0.32 -3.52,1.12 -1.6,0.76 -1.6,2.8 0.36,1.64 1.4,2.36 1.08,0.68 2.4,0.68 0.28,0 0.56,0 0.32,-0.04 0.6,-0.12 1.72,-0.28 3.2,-1.32 1.52,-1.04 1.84,-2.2 0.04,-0.08 0.04,-0.16 0.04,-0.08 0.04,-0.16 v -4.12 z" />
      <path
         id="path934"
         style="font-style:normal;font-variant:normal;font-weight:normal;font-stretch:normal;line-height:0;font-family:Helvetica-Normal;-inkscape-font-specification:Helvetica-Normal;letter-spacing:0.11611058px;fill:#ffffff;fill-opacity:1"
         d="m 531.97297,529.96759 q 0,-5.68 2.36,-8.8 2.4,-3.16 7.12,-3.16 1.4,0 2.52,0.68 1.16,0.64 1.92,1.4 0.28,0.28 0.48,0.56 0.24,0.24 0.44,0.48 v -2.52 h 3.44 v 20.16 q 0,5.88 -2.96,7.96 -2.92,2.08 -6.48,2.08 -0.68,0 -1.6,-0.12 -0.92,-0.12 -1.92,-0.4 -1.76,-0.56 -3.24,-1.96 -1.44,-1.4 -1.44,-4.12 l 3.48,0.04 q -0.12,1.48 1.36,2.4 1.48,0.96 3.36,0.96 0.16,0 0.32,0 0.2,0 0.4,-0.04 2,-0.2 3.64,-1.76 1.68,-1.52 1.68,-4.84 0,-0.28 0,-0.56 0,-0.28 -0.04,-0.56 -0.96,0.96 -1.96,1.56 -1,0.6 -2.04,0.92 -0.6,0.2 -1.2,0.28 -0.6,0.12 -1.2,0.12 -3.56,0.04 -6.16,-3 -2.56,-3.04 -2.28,-7.76 z m 3.8,-0.96 q 0.12,4.6 1.72,6.64 1.6,2.04 3.56,2.08 0.04,0 0.08,0 0.08,0 0.12,0 2.2,-0.12 4,-2.4 1.8,-2.32 1.56,-6 0.08,-3.8 -1.56,-5.64 -1.64,-1.84 -3.72,-1.84 -0.04,0 -0.12,0 -0.08,0 -0.12,0 -2,0.12 -3.72,1.92 -1.68,1.8 -1.8,5.24 z" />
      <path
         id="path936"
         style="font-style:normal;font-variant:normal;font-weight:normal;font-stretch:normal;line-height:0;font-family:Helvetica-Normal;-inkscape-font-specification:Helvetica-Normal;letter-spacing:0.11611058px;fill:#ffffff;fill-opacity:1"
         d="m 554.43284,529.00759 q 0.48,-4.96 2.76,-7.96 2.32,-3.04 7.04,-3.04 4.84,0 6.8,2.88 1.96,2.84 2.44,6.24 0.12,0.88 0.16,1.76 0.04,0.88 0.04,1.72 h -15.44 q 0.12,3.6 1.72,5.2 1.64,1.6 3.6,1.6 0.08,0 0.16,0 0.12,0 0.2,0 1.76,-0.12 3.32,-1.24 1.6,-1.12 2.32,-3.04 h 3.48 q -0.24,3.28 -2.64,5.12 -2.36,1.84 -6.16,2.08 -4.56,-0.16 -6.76,-2.48 -2.16,-2.36 -2.76,-5.16 -0.2,-0.96 -0.28,-1.88 -0.04,-0.96 0,-1.8 z m 3.8,-1.56 h 11.64 q -0.24,-3.2 -1.88,-4.84 -1.64,-1.68 -3.64,-1.68 -0.08,0 -0.16,0 -0.08,0 -0.16,0 -1.88,0.12 -3.56,1.76 -1.68,1.6 -2.24,4.76 z m 2.84,-11.36 4.08,-6.28 h 4.4 l -5.96,6.28 h -2.52 z" />
      <path
         id="path938"
         style="font-style:normal;font-variant:normal;font-weight:normal;font-stretch:normal;line-height:0;font-family:Helvetica-Normal;-inkscape-font-specification:Helvetica-Normal;letter-spacing:0.11611058px;fill:#ffffff;fill-opacity:1"
         d="m 576.89268,533.44759 q 0.64,0 1.44,0 0.8,0 1.64,0 0.08,0 0.16,0 0.12,0 0.24,0 0.24,2.4 1.8,3.44 1.56,1.04 3.4,1.08 0.04,0 0.04,0 0.04,0 0.08,0 1.92,0 3.48,-0.92 1.6,-0.92 1.6,-2.36 0.12,-1.68 -1.44,-2.36 -1.56,-0.68 -3.68,-1.16 -0.36,-0.08 -0.76,-0.16 -0.36,-0.08 -0.76,-0.2 -2.6,-0.6 -4.72,-1.88 -2.12,-1.28 -1.88,-4.64 0.24,-2.6 1.84,-4.04 1.64,-1.48 5.4,-1.92 0.68,0 1.44,0.04 0.76,0.04 1.56,0.16 2,0.32 3.68,1.6 1.68,1.28 1.84,4.48 h -3.48 q -0.28,-1.76 -1.52,-2.52 -1.2,-0.76 -2.64,-0.76 -0.12,0 -0.24,0 -0.08,0 -0.2,0 -1.68,0.12 -3.12,1 -1.4,0.84 -1.4,1.96 -0.12,1.6 1.44,2.28 1.56,0.68 3.72,1.2 0.4,0.08 0.8,0.2 0.4,0.08 0.8,0.16 2.56,0.64 4.68,1.84 2.12,1.16 2.12,4.08 0,0.04 0,0.12 0,0.04 0,0.08 0,0.04 0,0.12 0,0.04 0,0.08 0,0.12 0,0.24 0,0.12 0,0.24 -0.2,2.16 -2.32,4 -2.12,1.8 -6.2,2 -0.04,0 -0.12,0 -0.04,0 -0.08,0 -0.08,-0.04 -0.12,-0.04 -0.04,0 -0.12,0 -0.68,-0.04 -1.44,-0.12 -0.76,-0.08 -1.52,-0.24 -2.04,-0.44 -3.76,-1.88 -1.68,-1.44 -1.68,-5.2 z" />
    </g>
    <g
       id="flowRoot874-0"
       style="font-style:normal;font-weight:normal;font-size:40px;line-height:1.25;font-family:sans-serif;letter-spacing:0px;word-spacing:0px;fill:#ffffff;fill-opacity:1;stroke:none"
       transform="matrix(0.22787185,0,0,0.22787185,-5.6981463,-21.757407)"
       aria-label="Canada
">
      <path
         id="path895"
         style="font-style:normal;font-variant:normal;font-weight:normal;font-stretch:normal;line-height:0;font-family:Helvetica-Normal;-inkscape-font-specification:Helvetica-Normal;letter-spacing:0.05805529px;fill:#ffffff;fill-opacity:1"
         d="m 274.41742,525.56759 q 0.04,-0.84 0.12,-1.68 0.12,-0.88 0.28,-1.76 0.8,-4.28 3.68,-7.92 2.88,-3.68 9.16,-4.08 1,0 2.28,0.24 1.28,0.2 2.64,0.76 2.08,0.92 3.96,2.96 1.88,2.04 2.76,5.8 h -4.08 q -0.88,-3.2 -3,-4.76 -2.08,-1.56 -4.48,-1.56 -0.16,0 -0.32,0 -0.12,0 -0.24,0.04 -3.16,0.24 -5.84,3.12 -2.64,2.84 -2.8,8.2 0,6.44 2.68,9.32 2.68,2.84 5.88,2.88 0.04,0 0.04,0 0.04,0 0.08,0 3.12,0 5.76,-2.2 2.64,-2.24 2.88,-5.92 h 4.08 q -0.08,0.52 -0.2,1.08 -0.08,0.52 -0.24,1.08 -1.04,3.56 -4.04,6.52 -2.96,2.96 -7.48,2.96 -6.84,0.2 -10.2,-4.36 -3.36,-4.6 -3.36,-10.72 z" />
      <path
         id="path897"
         style="font-style:normal;font-variant:normal;font-weight:normal;font-stretch:normal;line-height:0;font-family:Helvetica-Normal;-inkscape-font-specification:Helvetica-Normal;letter-spacing:0.05805529px;fill:#ffffff;fill-opacity:1"
         d="m 303.45985,534.04759 q 0.24,-2.12 1.48,-3.84 1.28,-1.76 5.76,-2.44 5.36,-0.44 6.2,-1.08 0.84,-0.68 0.76,-2.48 0,-0.2 0,-0.4 0,-0.2 0,-0.44 0,-0.12 -0.04,-0.2 -0.04,-0.12 -0.12,-0.24 -0.44,-0.6 -1.8,-1.12 -1.36,-0.56 -2.88,-0.64 -0.12,0 -0.24,0 -0.08,0 -0.2,0 -1.72,0 -3.12,0.84 -1.36,0.8 -1.36,2.92 h -3.16 q 0,-0.08 0,-0.12 0,-0.08 0,-0.16 -0.04,-0.08 -0.04,-0.12 0,-0.08 0,-0.16 0,-0.16 0,-0.32 0.04,-0.2 0.04,-0.4 0.24,-2.12 2.08,-3.88 1.88,-1.76 5.8,-1.76 0.64,0 1.32,0.08 0.68,0.04 1.36,0.2 2.16,0.44 3.96,1.56 1.84,1.08 1.84,2.88 v 12.92 q 0,0.8 0.36,1.4 0.4,0.56 1.28,0.56 0.12,0 0.24,0 0.16,-0.04 0.32,-0.08 v 2.52 l -2.2,0.32 q -0.16,0.04 -0.36,0.04 -0.16,0.04 -0.32,0.04 -0.92,0 -1.48,-0.56 -0.56,-0.56 -0.88,-1.24 -0.16,-0.32 -0.24,-0.6 -0.08,-0.28 -0.16,-0.52 -2.04,1.64 -3.92,2.32 -1.88,0.72 -3.48,0.72 -3,0 -4.84,-1.84 -1.84,-1.84 -1.96,-4.04 0,-0.16 0,-0.32 0,-0.16 0,-0.32 z m 13.88,-4.72 q -0.32,0.4 -1.16,0.6 -0.84,0.16 -1.92,0.28 -0.44,0.08 -0.92,0.16 -0.48,0.04 -0.96,0.08 -1.92,0.32 -3.52,1.12 -1.6,0.76 -1.6,2.8 0.36,1.64 1.4,2.36 1.08,0.68 2.4,0.68 0.28,0 0.56,0 0.32,-0.04 0.6,-0.12 1.72,-0.28 3.2,-1.32 1.52,-1.04 1.84,-2.2 0.04,-0.08 0.04,-0.16 0.04,-0.08 0.04,-0.16 v -4.12 z" />
      <path
         id="path899"
         style="font-style:normal;font-variant:normal;font-weight:normal;font-stretch:normal;line-height:0;font-family:Helvetica-Normal;-inkscape-font-specification:Helvetica-Normal;letter-spacing:0.05805529px;fill:#ffffff;fill-opacity:1"
         d="m 327.14166,539.72759 v -21.12 h 3.44 v 2.84 q 0.36,-1.32 2.36,-2.32 2,-1 4.32,-1.08 0.12,0 0.2,0 0.12,0 0.2,0 2.48,-0.04 4.44,1.36 1.96,1.4 1.72,4.88 v 15.44 h -3.44 v -14.8 q 0,-1.84 -1.16,-2.72 -1.16,-0.92 -2.68,-0.92 -0.24,0 -0.52,0.04 -0.24,0 -0.48,0.04 -1.88,0.36 -3.44,1.96 -1.52,1.6 -1.52,4.44 v 11.96 h -3.44 z" />
      <path
         id="path901"
         style="font-style:normal;font-variant:normal;font-weight:normal;font-stretch:normal;line-height:0;font-family:Helvetica-Normal;-inkscape-font-specification:Helvetica-Normal;letter-spacing:0.05805529px;fill:#ffffff;fill-opacity:1"
         d="m 348.26346,534.04759 q 0.24,-2.12 1.48,-3.84 1.28,-1.76 5.76,-2.44 5.36,-0.44 6.2,-1.08 0.84,-0.68 0.76,-2.48 0,-0.2 0,-0.4 0,-0.2 0,-0.44 0,-0.12 -0.04,-0.2 -0.04,-0.12 -0.12,-0.24 -0.44,-0.6 -1.8,-1.12 -1.36,-0.56 -2.88,-0.64 -0.12,0 -0.24,0 -0.08,0 -0.2,0 -1.72,0 -3.12,0.84 -1.36,0.8 -1.36,2.92 h -3.16 q 0,-0.08 0,-0.12 0,-0.08 0,-0.16 -0.04,-0.08 -0.04,-0.12 0,-0.08 0,-0.16 0,-0.16 0,-0.32 0.04,-0.2 0.04,-0.4 0.24,-2.12 2.08,-3.88 1.88,-1.76 5.8,-1.76 0.64,0 1.32,0.08 0.68,0.04 1.36,0.2 2.16,0.44 3.96,1.56 1.84,1.08 1.84,2.88 v 12.92 q 0,0.8 0.36,1.4 0.4,0.56 1.28,0.56 0.12,0 0.24,0 0.16,-0.04 0.32,-0.08 v 2.52 l -2.2,0.32 q -0.16,0.04 -0.36,0.04 -0.16,0.04 -0.32,0.04 -0.92,0 -1.48,-0.56 -0.56,-0.56 -0.88,-1.24 -0.16,-0.32 -0.24,-0.6 -0.08,-0.28 -0.16,-0.52 -2.04,1.64 -3.92,2.32 -1.88,0.72 -3.48,0.72 -3,0 -4.84,-1.84 -1.84,-1.84 -1.96,-4.04 0,-0.16 0,-0.32 0,-0.16 0,-0.32 z m 13.88,-4.72 q -0.32,0.4 -1.16,0.6 -0.84,0.16 -1.92,0.28 -0.44,0.08 -0.92,0.16 -0.48,0.04 -0.96,0.08 -1.92,0.32 -3.52,1.12 -1.6,0.76 -1.6,2.8 0.36,1.64 1.4,2.36 1.08,0.68 2.4,0.68 0.28,0 0.56,0 0.32,-0.04 0.6,-0.12 1.72,-0.28 3.2,-1.32 1.52,-1.04 1.84,-2.2 0.04,-0.08 0.04,-0.16 0.04,-0.08 0.04,-0.16 v -4.12 z" />
      <path
         id="path903"
         style="font-style:normal;font-variant:normal;font-weight:normal;font-stretch:normal;line-height:0;font-family:Helvetica-Normal;-inkscape-font-specification:Helvetica-Normal;letter-spacing:0.05805529px;fill:#ffffff;fill-opacity:1"
         d="m 370.34527,527.12759 q 0.64,-4.8 2.96,-6.92 2.32,-2.16 5,-2.4 0.16,-0.04 0.32,-0.04 0.2,0 0.36,0 2,0 3.76,0.84 1.76,0.84 2.72,2.24 v -10.4 h 3.48 v 29.28 h -2.84 q 0,-0.48 0,-1.12 0,-0.68 0,-1.4 -0.8,1.6 -2.68,2.56 -1.84,0.96 -4,0.96 -0.28,0 -0.56,-0.04 -0.24,0 -0.48,-0.04 -3.28,-0.36 -5.92,-3.48 -2.64,-3.12 -2.12,-10.04 z m 3.8,1.88 q -0.12,4 1.72,6.24 1.84,2.24 4.04,2.28 0.04,0 0.04,0 0.04,0 0.08,0 2.08,0 3.76,-2.04 1.68,-2.04 1.68,-6.48 0,-3.76 -1.76,-5.64 -1.76,-1.88 -3.84,-1.92 -0.04,0 -0.08,0 0,0 -0.04,0 -2.2,-0.04 -4.04,1.92 -1.8,1.92 -1.56,5.64 z" />
      <path
         id="path905"
         style="font-style:normal;font-variant:normal;font-weight:normal;font-stretch:normal;line-height:0;font-family:Helvetica-Normal;-inkscape-font-specification:Helvetica-Normal;letter-spacing:0.05805529px;fill:#ffffff;fill-opacity:1"
         d="m 393.06707,534.04759 q 0.24,-2.12 1.48,-3.84 1.28,-1.76 5.76,-2.44 5.36,-0.44 6.2,-1.08 0.84,-0.68 0.76,-2.48 0,-0.2 0,-0.4 0,-0.2 0,-0.44 0,-0.12 -0.04,-0.2 -0.04,-0.12 -0.12,-0.24 -0.44,-0.6 -1.8,-1.12 -1.36,-0.56 -2.88,-0.64 -0.12,0 -0.24,0 -0.08,0 -0.2,0 -1.72,0 -3.12,0.84 -1.36,0.8 -1.36,2.92 h -3.16 q 0,-0.08 0,-0.12 0,-0.08 0,-0.16 -0.04,-0.08 -0.04,-0.12 0,-0.08 0,-0.16 0,-0.16 0,-0.32 0.04,-0.2 0.04,-0.4 0.24,-2.12 2.08,-3.88 1.88,-1.76 5.8,-1.76 0.64,0 1.32,0.08 0.68,0.04 1.36,0.2 2.16,0.44 3.96,1.56 1.84,1.08 1.84,2.88 v 12.92 q 0,0.8 0.36,1.4 0.4,0.56 1.28,0.56 0.12,0 0.24,0 0.16,-0.04 0.32,-0.08 v 2.52 l -2.2,0.32 q -0.16,0.04 -0.36,0.04 -0.16,0.04 -0.32,0.04 -0.92,0 -1.48,-0.56 -0.56,-0.56 -0.88,-1.24 -0.16,-0.32 -0.24,-0.6 -0.08,-0.28 -0.16,-0.52 -2.04,1.64 -3.92,2.32 -1.88,0.72 -3.48,0.72 -3,0 -4.84,-1.84 -1.84,-1.84 -1.96,-4.04 0,-0.16 0,-0.32 0,-0.16 0,-0.32 z m 13.88,-4.72 q -0.32,0.4 -1.16,0.6 -0.84,0.16 -1.92,0.28 -0.44,0.08 -0.92,0.16 -0.48,0.04 -0.96,0.08 -1.92,0.32 -3.52,1.12 -1.6,0.76 -1.6,2.8 0.36,1.64 1.4,2.36 1.08,0.68 2.4,0.68 0.28,0 0.56,0 0.32,-0.04 0.6,-0.12 1.72,-0.28 3.2,-1.32 1.52,-1.04 1.84,-2.2 0.04,-0.08 0.04,-0.16 0.04,-0.08 0.04,-0.16 v -4.12 z" />
    </g>
    <g
       id="flowRoot874-0-8"
       style="font-style:normal;font-weight:normal;font-size:40px;line-height:1.25;font-family:sans-serif;letter-spacing:0px;word-spacing:0px;fill:#ffffff;fill-opacity:1;stroke:none"
       transform="matrix(0.22787185,0,0,0.22787185,75.147382,-21.73462)"
       aria-label="Canada
">
      <path
         id="path882"
         style="font-style:normal;font-variant:normal;font-weight:normal;font-stretch:normal;line-height:0;font-family:Helvetica-Normal;-inkscape-font-specification:Helvetica-Normal;letter-spacing:0.05805529px;fill:#ffffff;fill-opacity:1"
         d="m 274.41742,525.56759 q 0.04,-0.84 0.12,-1.68 0.12,-0.88 0.28,-1.76 0.8,-4.28 3.68,-7.92 2.88,-3.68 9.16,-4.08 1,0 2.28,0.24 1.28,0.2 2.64,0.76 2.08,0.92 3.96,2.96 1.88,2.04 2.76,5.8 h -4.08 q -0.88,-3.2 -3,-4.76 -2.08,-1.56 -4.48,-1.56 -0.16,0 -0.32,0 -0.12,0 -0.24,0.04 -3.16,0.24 -5.84,3.12 -2.64,2.84 -2.8,8.2 0,6.44 2.68,9.32 2.68,2.84 5.88,2.88 0.04,0 0.04,0 0.04,0 0.08,0 3.12,0 5.76,-2.2 2.64,-2.24 2.88,-5.92 h 4.08 q -0.08,0.52 -0.2,1.08 -0.08,0.52 -0.24,1.08 -1.04,3.56 -4.04,6.52 -2.96,2.96 -7.48,2.96 -6.84,0.2 -10.2,-4.36 -3.36,-4.6 -3.36,-10.72 z" />
      <path
         id="path884"
         style="font-style:normal;font-variant:normal;font-weight:normal;font-stretch:normal;line-height:0;font-family:Helvetica-Normal;-inkscape-font-specification:Helvetica-Normal;letter-spacing:0.05805529px;fill:#ffffff;fill-opacity:1"
         d="m 303.45985,534.04759 q 0.24,-2.12 1.48,-3.84 1.28,-1.76 5.76,-2.44 5.36,-0.44 6.2,-1.08 0.84,-0.68 0.76,-2.48 0,-0.2 0,-0.4 0,-0.2 0,-0.44 0,-0.12 -0.04,-0.2 -0.04,-0.12 -0.12,-0.24 -0.44,-0.6 -1.8,-1.12 -1.36,-0.56 -2.88,-0.64 -0.12,0 -0.24,0 -0.08,0 -0.2,0 -1.72,0 -3.12,0.84 -1.36,0.8 -1.36,2.92 h -3.16 q 0,-0.08 0,-0.12 0,-0.08 0,-0.16 -0.04,-0.08 -0.04,-0.12 0,-0.08 0,-0.16 0,-0.16 0,-0.32 0.04,-0.2 0.04,-0.4 0.24,-2.12 2.08,-3.88 1.88,-1.76 5.8,-1.76 0.64,0 1.32,0.08 0.68,0.04 1.36,0.2 2.16,0.44 3.96,1.56 1.84,1.08 1.84,2.88 v 12.92 q 0,0.8 0.36,1.4 0.4,0.56 1.28,0.56 0.12,0 0.24,0 0.16,-0.04 0.32,-0.08 v 2.52 l -2.2,0.32 q -0.16,0.04 -0.36,0.04 -0.16,0.04 -0.32,0.04 -0.92,0 -1.48,-0.56 -0.56,-0.56 -0.88,-1.24 -0.16,-0.32 -0.24,-0.6 -0.08,-0.28 -0.16,-0.52 -2.04,1.64 -3.92,2.32 -1.88,0.72 -3.48,0.72 -3,0 -4.84,-1.84 -1.84,-1.84 -1.96,-4.04 0,-0.16 0,-0.32 0,-0.16 0,-0.32 z m 13.88,-4.72 q -0.32,0.4 -1.16,0.6 -0.84,0.16 -1.92,0.28 -0.44,0.08 -0.92,0.16 -0.48,0.04 -0.96,0.08 -1.92,0.32 -3.52,1.12 -1.6,0.76 -1.6,2.8 0.36,1.64 1.4,2.36 1.08,0.68 2.4,0.68 0.28,0 0.56,0 0.32,-0.04 0.6,-0.12 1.72,-0.28 3.2,-1.32 1.52,-1.04 1.84,-2.2 0.04,-0.08 0.04,-0.16 0.04,-0.08 0.04,-0.16 v -4.12 z" />
      <path
         id="path886"
         style="font-style:normal;font-variant:normal;font-weight:normal;font-stretch:normal;line-height:0;font-family:Helvetica-Normal;-inkscape-font-specification:Helvetica-Normal;letter-spacing:0.05805529px;fill:#ffffff;fill-opacity:1"
         d="m 327.14166,539.72759 v -21.12 h 3.44 v 2.84 q 0.36,-1.32 2.36,-2.32 2,-1 4.32,-1.08 0.12,0 0.2,0 0.12,0 0.2,0 2.48,-0.04 4.44,1.36 1.96,1.4 1.72,4.88 v 15.44 h -3.44 v -14.8 q 0,-1.84 -1.16,-2.72 -1.16,-0.92 -2.68,-0.92 -0.24,0 -0.52,0.04 -0.24,0 -0.48,0.04 -1.88,0.36 -3.44,1.96 -1.52,1.6 -1.52,4.44 v 11.96 h -3.44 z" />
      <path
         id="path888"
         style="font-style:normal;font-variant:normal;font-weight:normal;font-stretch:normal;line-height:0;font-family:Helvetica-Normal;-inkscape-font-specification:Helvetica-Normal;letter-spacing:0.05805529px;fill:#ffffff;fill-opacity:1"
         d="m 348.26346,534.04759 q 0.24,-2.12 1.48,-3.84 1.28,-1.76 5.76,-2.44 5.36,-0.44 6.2,-1.08 0.84,-0.68 0.76,-2.48 0,-0.2 0,-0.4 0,-0.2 0,-0.44 0,-0.12 -0.04,-0.2 -0.04,-0.12 -0.12,-0.24 -0.44,-0.6 -1.8,-1.12 -1.36,-0.56 -2.88,-0.64 -0.12,0 -0.24,0 -0.08,0 -0.2,0 -1.72,0 -3.12,0.84 -1.36,0.8 -1.36,2.92 h -3.16 q 0,-0.08 0,-0.12 0,-0.08 0,-0.16 -0.04,-0.08 -0.04,-0.12 0,-0.08 0,-0.16 0,-0.16 0,-0.32 0.04,-0.2 0.04,-0.4 0.24,-2.12 2.08,-3.88 1.88,-1.76 5.8,-1.76 0.64,0 1.32,0.08 0.68,0.04 1.36,0.2 2.16,0.44 3.96,1.56 1.84,1.08 1.84,2.88 v 12.92 q 0,0.8 0.36,1.4 0.4,0.56 1.28,0.56 0.12,0 0.24,0 0.16,-0.04 0.32,-0.08 v 2.52 l -2.2,0.32 q -0.16,0.04 -0.36,0.04 -0.16,0.04 -0.32,0.04 -0.92,0 -1.48,-0.56 -0.56,-0.56 -0.88,-1.24 -0.16,-0.32 -0.24,-0.6 -0.08,-0.28 -0.16,-0.52 -2.04,1.64 -3.92,2.32 -1.88,0.72 -3.48,0.72 -3,0 -4.84,-1.84 -1.84,-1.84 -1.96,-4.04 0,-0.16 0,-0.32 0,-0.16 0,-0.32 z m 13.88,-4.72 q -0.32,0.4 -1.16,0.6 -0.84,0.16 -1.92,0.28 -0.44,0.08 -0.92,0.16 -0.48,0.04 -0.96,0.08 -1.92,0.32 -3.52,1.12 -1.6,0.76 -1.6,2.8 0.36,1.64 1.4,2.36 1.08,0.68 2.4,0.68 0.28,0 0.56,0 0.32,-0.04 0.6,-0.12 1.72,-0.28 3.2,-1.32 1.52,-1.04 1.84,-2.2 0.04,-0.08 0.04,-0.16 0.04,-0.08 0.04,-0.16 v -4.12 z" />
      <path
         id="path890"
         style="font-style:normal;font-variant:normal;font-weight:normal;font-stretch:normal;line-height:0;font-family:Helvetica-Normal;-inkscape-font-specification:Helvetica-Normal;letter-spacing:0.05805529px;fill:#ffffff;fill-opacity:1"
         d="m 370.34527,527.12759 q 0.64,-4.8 2.96,-6.92 2.32,-2.16 5,-2.4 0.16,-0.04 0.32,-0.04 0.2,0 0.36,0 2,0 3.76,0.84 1.76,0.84 2.72,2.24 v -10.4 h 3.48 v 29.28 h -2.84 q 0,-0.48 0,-1.12 0,-0.68 0,-1.4 -0.8,1.6 -2.68,2.56 -1.84,0.96 -4,0.96 -0.28,0 -0.56,-0.04 -0.24,0 -0.48,-0.04 -3.28,-0.36 -5.92,-3.48 -2.64,-3.12 -2.12,-10.04 z m 3.8,1.88 q -0.12,4 1.72,6.24 1.84,2.24 4.04,2.28 0.04,0 0.04,0 0.04,0 0.08,0 2.08,0 3.76,-2.04 1.68,-2.04 1.68,-6.48 0,-3.76 -1.76,-5.64 -1.76,-1.88 -3.84,-1.92 -0.04,0 -0.08,0 0,0 -0.04,0 -2.2,-0.04 -4.04,1.92 -1.8,1.92 -1.56,5.64 z" />
      <path
         id="path892"
         style="font-style:normal;font-variant:normal;font-weight:normal;font-stretch:normal;line-height:0;font-family:Helvetica-Normal;-inkscape-font-specification:Helvetica-Normal;letter-spacing:0.05805529px;fill:#ffffff;fill-opacity:1"
         d="m 393.06707,534.04759 q 0.24,-2.12 1.48,-3.84 1.28,-1.76 5.76,-2.44 5.36,-0.44 6.2,-1.08 0.84,-0.68 0.76,-2.48 0,-0.2 0,-0.4 0,-0.2 0,-0.44 0,-0.12 -0.04,-0.2 -0.04,-0.12 -0.12,-0.24 -0.44,-0.6 -1.8,-1.12 -1.36,-0.56 -2.88,-0.64 -0.12,0 -0.24,0 -0.08,0 -0.2,0 -1.72,0 -3.12,0.84 -1.36,0.8 -1.36,2.92 h -3.16 q 0,-0.08 0,-0.12 0,-0.08 0,-0.16 -0.04,-0.08 -0.04,-0.12 0,-0.08 0,-0.16 0,-0.16 0,-0.32 0.04,-0.2 0.04,-0.4 0.24,-2.12 2.08,-3.88 1.88,-1.76 5.8,-1.76 0.64,0 1.32,0.08 0.68,0.04 1.36,0.2 2.16,0.44 3.96,1.56 1.84,1.08 1.84,2.88 v 12.92 q 0,0.8 0.36,1.4 0.4,0.56 1.28,0.56 0.12,0 0.24,0 0.16,-0.04 0.32,-0.08 v 2.52 l -2.2,0.32 q -0.16,0.04 -0.36,0.04 -0.16,0.04 -0.32,0.04 -0.92,0 -1.48,-0.56 -0.56,-0.56 -0.88,-1.24 -0.16,-0.32 -0.24,-0.6 -0.08,-0.28 -0.16,-0.52 -2.04,1.64 -3.92,2.32 -1.88,0.72 -3.48,0.72 -3,0 -4.84,-1.84 -1.84,-1.84 -1.96,-4.04 0,-0.16 0,-0.32 0,-0.16 0,-0.32 z m 13.88,-4.72 q -0.32,0.4 -1.16,0.6 -0.84,0.16 -1.92,0.28 -0.44,0.08 -0.92,0.16 -0.48,0.04 -0.96,0.08 -1.92,0.32 -3.52,1.12 -1.6,0.76 -1.6,2.8 0.36,1.64 1.4,2.36 1.08,0.68 2.4,0.68 0.28,0 0.56,0 0.32,-0.04 0.6,-0.12 1.72,-0.28 3.2,-1.32 1.52,-1.04 1.84,-2.2 0.04,-0.08 0.04,-0.16 0.04,-0.08 0.04,-0.16 v -4.12 z" />
    </g>
  </g>
  <g
     style="display:none"
     id="g897"
     transform="translate(-10.029682,-85.341962)">
    <path
       id="path841"
       style="fill:#231f20;fill-opacity:1;fill-rule:nonzero;stroke:none;stroke-width:1.3374356"
       d="m 10.029682,101.37049 c 0,0 0,-15.861164 0,-15.861164 0,0 7.790826,0 7.790826,0 0,0 0,15.861164 0,15.861164 0,0 -7.790826,0 -7.790826,0 z" />
    <path
       id="path843"
       style="fill:#231f20;fill-opacity:1;fill-rule:nonzero;stroke:none;stroke-width:1.3374356"
       d="m 35.098778,101.37049 c 0,0 0,-15.861164 0,-15.861164 0,0 7.78821,0 7.78821,0 0,0 0,15.861164 0,15.861164 0,0 -7.78821,0 -7.78821,0 z" />
    <path
       id="path845"
       style="fill:#231f20;fill-opacity:1;fill-rule:nonzero;stroke:none;stroke-width:1.3374356"
       d="m 25.377534,88.805906 c 0,0 1.114106,-2.26412 1.114106,-2.26412 0,0 1.103644,2.18117 1.103644,2.18117 0.139893,0.22986 0.250974,0.21223 0.471468,0.10257 0,0 0.946917,-0.47018 0.946917,-0.47018 0,0 -0.616442,3.04776 -0.616442,3.04776 -0.129278,0.5982 0.211547,0.77255 0.579895,0.36766 0,0 1.354391,-1.44518 1.354391,-1.44518 0,0 0.357885,0.81891 0.357885,0.81891 0.12018,0.24818 0.30443,0.21223 0.543349,0.16586 0,0 1.398823,-0.29517 1.398823,-0.29517 0,0 -0.46889,1.76779 -0.46889,1.76779 0,0 -0.0076,0.0372 -0.0076,0.0372 -0.05611,0.22986 -0.166052,0.42384 0.09137,0.53355 0,0 0.498917,0.24881 0.498917,0.24881 0,0 -2.88253,2.43911 -2.88253,2.43911 -0.293815,0.30433 -0.193349,0.39641 -0.08227,0.73599 0,0 0.265001,0.82024 0.265001,0.82024 0,0 -2.687929,-0.48849 -2.687929,-0.48849 -0.330589,-0.0823 -0.561622,-0.0823 -0.569432,0.18417 0,0 0.111081,3.083684 0.111081,3.083684 0,0 -0.81108,0 -0.81108,0 0,0 0.109564,-3.073884 0.109564,-3.073884 0,-0.30497 -0.228607,-0.29455 -0.771917,-0.18414 0,0 -2.485482,0.47868 -2.485482,0.47868 0,0 0.32111,-0.82024 0.32111,-0.82024 0.111081,-0.3128 0.138378,-0.52503 -0.109563,-0.73597 0,0 -2.946525,-2.40255 -2.946525,-2.40255 0,0 0.542022,-0.33177 0.542022,-0.33177 0.156574,-0.11889 0.168327,-0.24816 0.08378,-0.51589 0,0 -0.551196,-1.79458 -0.551196,-1.79458 0,0 1.417097,0.30432 1.417097,0.30432 0.397085,0.0914 0.506801,0 0.606053,-0.22141 0,0 0.397049,-0.80977 0.397049,-0.80977 0,0 1.400112,1.58299 1.400112,1.58299 0.24832,0.29583 0.598205,0.10116 0.4872,-0.32195 0,0 -0.672664,-3.3057 -0.672664,-3.3057 0,0 1.039649,0.60014 1.039649,0.60014 0.168327,0.10117 0.340824,0.12731 0.442769,-0.0646" />
    <flowRoot
       xml:space="preserve"
       id="flowRoot855"
       style="font-style:normal;font-weight:normal;font-size:40px;line-height:1.25;font-family:sans-serif;letter-spacing:0px;word-spacing:0px;fill:#000000;fill-opacity:1;stroke:none"
       transform="matrix(0.28975424,0,0,0.28975424,-6.9325832,-15.976796)"><flowRegion
         id="flowRegion849"><rect
           id="rect847"
           width="302.64352"
           height="110.43862"
           x="281.42856"
           y="516.80542" /></flowRegion><flowPara
         style="font-style:normal;font-variant:normal;font-weight:normal;font-stretch:normal;font-size:32px;line-height:4;font-family:Helvetica-Normal;-inkscape-font-specification:Helvetica-Normal"
         id="flowPara851">Shared Services</flowPara><flowPara
         style="font-style:normal;font-variant:normal;font-weight:normal;font-stretch:normal;font-size:32px;line-height:4;font-family:Helvetica-Normal;-inkscape-font-specification:Helvetica-Normal"
         id="flowPara853">Canada</flowPara></flowRoot>    <g
       transform="translate(85.800599)"
       id="g925">
      <flowRoot
         transform="matrix(0.22787185,0,0,0.22787185,-5.4227533,-30.787341)"
         style="font-style:normal;font-weight:normal;font-size:40px;line-height:1.25;font-family:sans-serif;letter-spacing:0px;word-spacing:0px;fill:#000000;fill-opacity:1;stroke:none"
         id="flowRoot865"
         xml:space="preserve"><flowRegion
           id="flowRegion859"><rect
             y="503.23398"
             x="272.85715"
             height="115.34523"
             width="312.46429"
             id="rect857" /></flowRegion><flowPara
           style="font-style:normal;font-variant:normal;font-weight:normal;font-stretch:normal;line-height:0;font-family:Helvetica-Normal;-inkscape-font-specification:Helvetica-Normal;letter-spacing:0.05805529px"
           id="flowPara861">Shared Services</flowPara><flowPara
           id="flowPara863"
           style="font-style:normal;font-variant:normal;font-weight:normal;font-stretch:normal;line-height:1;font-family:Helvetica-Normal;-inkscape-font-specification:Helvetica-Normal" /></flowRoot>      <flowRoot
         transform="matrix(0.22787185,0,0,0.22787185,-5.6981463,-21.757407)"
         style="font-style:normal;font-weight:normal;font-size:40px;line-height:1.25;font-family:sans-serif;letter-spacing:0px;word-spacing:0px;fill:#000000;fill-opacity:1;stroke:none"
         id="flowRoot885"
         xml:space="preserve"><flowRegion
           id="flowRegion879"><rect
             y="503.23398"
             x="272.85715"
             height="115.34523"
             width="312.46429"
             id="rect877" /></flowRegion><flowPara
           style="font-style:normal;font-variant:normal;font-weight:normal;font-stretch:normal;line-height:0;font-family:Helvetica-Normal;-inkscape-font-specification:Helvetica-Normal;letter-spacing:0.05805529px"
           id="flowPara881">Canada</flowPara><flowPara
           id="flowPara883"
           style="font-style:normal;font-variant:normal;font-weight:normal;font-stretch:normal;line-height:1;font-family:Helvetica-Normal;-inkscape-font-specification:Helvetica-Normal" /></flowRoot>    </g>
    <g
       transform="translate(-81.075893,0.18898851)"
       id="g913">
      <flowRoot
         transform="matrix(0.22787185,0,0,0.22787185,75.470351,-30.828836)"
         style="font-style:normal;font-weight:normal;font-size:40px;line-height:1.25;font-family:sans-serif;letter-spacing:0px;word-spacing:0px;fill:#000000;fill-opacity:1;stroke:none"
         id="flowRoot875"
         xml:space="preserve"><flowRegion
           id="flowRegion869"><rect
             y="503.23398"
             x="272.85715"
             height="114.51588"
             width="343.97998"
             id="rect867" /></flowRegion><flowPara
           style="font-style:normal;font-variant:normal;font-weight:normal;font-stretch:normal;line-height:0;font-family:Helvetica-Normal;-inkscape-font-specification:Helvetica-Normal;letter-spacing:0.11611058px"
           id="flowPara871">Services partagés</flowPara><flowPara
           id="flowPara873"
           style="font-style:normal;font-variant:normal;font-weight:normal;font-stretch:normal;line-height:1;font-family:Helvetica-Normal;-inkscape-font-specification:Helvetica-Normal" /></flowRoot>      <flowRoot
         transform="matrix(0.22787185,0,0,0.22787185,75.147382,-21.73462)"
         style="font-style:normal;font-weight:normal;font-size:40px;line-height:1.25;font-family:sans-serif;letter-spacing:0px;word-spacing:0px;fill:#000000;fill-opacity:1;stroke:none"
         id="flowRoot895"
         xml:space="preserve"><flowRegion
           id="flowRegion889"><rect
             y="503.23398"
             x="272.85715"
             height="115.34523"
             width="312.46429"
             id="rect887" /></flowRegion><flowPara
           style="font-style:normal;font-variant:normal;font-weight:normal;font-stretch:normal;line-height:0;font-family:Helvetica-Normal;-inkscape-font-specification:Helvetica-Normal;letter-spacing:0.05805529px"
           id="flowPara891">Canada</flowPara><flowPara
           id="flowPara893"
           style="font-style:normal;font-variant:normal;font-weight:normal;font-stretch:normal;line-height:1;font-family:Helvetica-Normal;-inkscape-font-specification:Helvetica-Normal" /></flowRoot>    </g>
  </g>
</svg>
